Antasari Sans-500.sfdir
StartChar: four
Encoding: 52 52 14
Width: 1234
VWidth: 0
Flags: W
HStem: 0 21G<962 1202> 658 240<304 962> 1317 239<32 962>
VStem: 962 240<0 658 898 1317>
LayerCount: 2
Fore
SplineSet
962 0 m 1
 962 658 l 1
 304 658 l 1
 304 898 l 1
 962 898 l 1
 962 1317 l 1
 32 1317 l 1
 32 1556 l 1
 1202 1556 l 1
 1202 0 l 1
 962 0 l 1
EndSplineSet
Validated: 1
EndChar
StartChar: seven
Encoding: 55 55 15
Width: 1234
VWidth: 0
Flags: W
HStem: 0 21G<258 507.049> 1317 239<32 854>
LayerCount: 2
Fore
SplineSet
962 1556 m 5
 1202 1556 l 1
 498 0 l 1
 258 0 l 1
 854 1317 l 1
 32 1317 l 1
 32 1556 l 1
 962 1556 l 5
EndSplineSet
Validated: 1
EndChar
StartChar: equal
Encoding: 61 61 21
Width: 1234
VWidth: 0
Flags: W
HStem: 400 239<0 1234> 917 239<0 1234>
LayerCount: 2
Fore
SplineSet
0 639 m 25
 1234 639 l 25
 1234 400 l 25
 0 400 l 25
 0 639 l 25
0 1156 m 25
 1234 1156 l 25
 1234 917 l 25
 0 917 l 25
 0 1156 l 25
EndSplineSet
Validated: 1
EndChar
StartChar: A
Encoding: 65 65 0
Width: 2048
VWidth: 0
Flags: HW
LayerCount: 2
Fore
SplineSet
550 819 m 5
 950 819 l 5
 750 1365 l 5
 550 819 l 5
0 0 m 5
 625 1638 l 5
 875 1638 l 5
 1500 0 l 5
 1250 0 l 5
 1050 546 l 5
 450 546 l 5
 250 0 l 5
 0 0 l 5
EndSplineSet
EndChar
StartChar: E
Encoding: 69 69 9
Width: 1234
VWidth: 0
Flags: W
HStem: 0 239<272 1202> 658 240<272 962> 1317 239<272 1202>
VStem: 32 240<239 658 898 1317>
CounterMasks: 1 e0
LayerCount: 2
Fore
SplineSet
272 1317 m 1
 272 898 l 1
 962 898 l 1
 962 658 l 1
 272 658 l 1
 272 239 l 1
 1202 239 l 1
 1202 0 l 1
 32 0 l 1
 32 1556 l 1
 1202 1556 l 1
 1202 1317 l 1
 272 1317 l 1
EndSplineSet
Validated: 1
EndChar
StartChar: F
Encoding: 70 70 8
Width: 1234
VWidth: 0
Flags: W
HStem: 0 21G<32 272> 658 240<272 962> 1317 239<272 1202>
VStem: 32 240<0 658 898 1317>
LayerCount: 2
Fore
SplineSet
272 0 m 1
 32 0 l 1
 32 1556 l 1
 1202 1556 l 1
 1202 1317 l 1
 272 1317 l 1
 272 898 l 1
 962 898 l 5
 962 658 l 5
 272 658 l 1
 272 0 l 1
EndSplineSet
Validated: 1
EndChar
StartChar: H
Encoding: 72 72 5
Width: 1234
VWidth: 0
Flags: W
HStem: 0 21G<32 272 962 1202> 658 240<272 962> 1536 20G<32 272 962 1202>
VStem: 32 240<0 658 898 1556> 962 240<0 658 898 1556>
LayerCount: 2
Fore
SplineSet
272 0 m 5
 32 0 l 5
 32 1556 l 5
 272 1556 l 5
 272 898 l 5
 962 898 l 5
 962 1556 l 5
 1202 1556 l 5
 1202 0 l 5
 962 0 l 5
 962 658 l 5
 272 658 l 5
 272 0 l 5
EndSplineSet
Validated: 1
EndChar
StartChar: I
Encoding: 73 73 10
Width: 617
VWidth: 0
Flags: W
HStem: 0 239<32 189 428 584> 1317 239<32 189 428 584>
VStem: 32 552<0 239 1317 1556>
LayerCount: 2
Fore
SplineSet
189 1317 m 1
 32 1317 l 1
 32 1556 l 1
 584 1556 l 1
 584 1317 l 1
 428 1317 l 1
 428 239 l 1
 584 239 l 1
 584 0 l 1
 32 0 l 1
 32 239 l 1
 189 239 l 1
 189 1317 l 1
EndSplineSet
Validated: 1
EndChar
StartChar: L
Encoding: 76 76 4
Width: 2048
VWidth: 0
Flags: H
LayerCount: 2
Fore
SplineSet
0 1638 m 25
 250 1638 l 25
 250 273 l 25
 1250 273 l 25
 1250 0 l 29
 0 0 l 25
 0 1638 l 25
EndSplineSet
EndChar
StartChar: M
Encoding: 77 77 1
Width: 2048
VWidth: 0
Flags: H
LayerCount: 2
Fore
SplineSet
0 0 m 25
 0 1637 l 25
 300 1638 l 1
 750 955.5 l 25
 1200 1638 l 1
 1500 1638 l 25
 1494 0 l 25
 1250 0 l 25
 1250 1296.75 l 1
 750 546 l 25
 250 1296.75 l 1
 250 0 l 25
 0 0 l 25
EndSplineSet
EndChar
StartChar: N
Encoding: 78 78 3
Width: 1234
VWidth: 0
Flags: W
HStem: 0 21G<32 272 950.062 1202> 1536 20G<32 283.938 962 1202>
VStem: 32 240<0 1156> 962 240<400 1556>
LayerCount: 2
Fore
SplineSet
272 1156 m 5
 272 0 l 5
 32 0 l 5
 32 1556 l 5
 272 1556 l 5
 962 400 l 5
 962 1556 l 5
 1202 1556 l 5
 1202 0 l 5
 962 0 l 5
 272 1156 l 5
EndSplineSet
Validated: 1
EndChar
StartChar: S
Encoding: 83 83 20
Width: 1234
VWidth: 0
Flags: HW
HStem: -24 224<427.749 865.33> 1356 224<368.67 806.251>
VStem: 39 238<1047.39 1278.66> 957 238<277.338 508.638>
LayerCount: 2
Fore
SplineSet
307 778 m 2
 168 831 39 966 39 1156 c 0
 39 1282 65 1347 127 1411 c 0
 225 1513 308 1575 617 1580 c 0
 620 1580 622.829964139 1580.07372004 625.769409859 1580.07372004 c 0
 801.828757973 1580.07372004 1035.66029841 1492.34141889 1195 1393 c 1
 1176 1309 1149 1234 1123 1158 c 1
 961 1258 744 1354 617 1356 c 0
 610.701471269 1356.09739993 604.451430351 1356.14736613 598.25343639 1356.14736613 c 0
 414.823630754 1356.14736613 276.979969078 1312.3836875 276.979969078 1159.21155802 c 0
 276.979969078 1158.14633744 276.986635709 1157.07582546 277 1156 c 0
 278 1074 332 1000 451 960 c 2
 927 778 l 1
 1066 725 1195 590 1195 400 c 0
 1195 274 1169 209 1107 145 c 0
 1009 43 926 -19 617 -24 c 0
 614.093377663 -24.0492647854 611.170035861 -24.0737200424 608.230590141 -24.0737200424 c 0
 432.171242027 -24.0737200424 198.33970159 63.6585811076 39 163 c 1
 111 398 l 1
 273 298 490 202 617 200 c 0
 623.298528731 199.902600071 629.548569649 199.852633873 635.74656361 199.852633873 c 0
 819.176369246 199.852633873 957.020030922 243.616312501 957.020030922 396.788441978 c 0
 957.020030922 397.853662561 957.013364291 398.924174542 957 400 c 0
 956 482 900 551 783 596 c 2
 307 778 l 2
EndSplineSet
Validated: 6815745
EndChar
StartChar: T
Encoding: 84 84 2
Width: 1234
VWidth: 0
Flags: W
HStem: 0 21G<498 736> 1318 238<32 498 736 1202>
VStem: 498 238<0 1318>
LayerCount: 2
Fore
SplineSet
736 0 m 5
 498 0 l 5
 498 1318 l 5
 32 1318 l 5
 32 1556 l 5
 1202 1556 l 5
 1202 1318 l 5
 736 1318 l 5
 736 0 l 5
EndSplineSet
Validated: 1
EndChar
StartChar: V
Encoding: 86 86 6
Width: 1234
VWidth: 0
Flags: W
HStem: 0 21G<492.01 741.99> 1536 20G<32 277.969 956.031 1202>
LayerCount: 2
Fore
SplineSet
32 1556 m 1
 272 1556 l 1
 617 400 l 1
 962 1556 l 1
 1202 1556 l 1
 736 0 l 1
 498 0 l 1
 32 1556 l 1
EndSplineSet
Validated: 1
EndChar
StartChar: W
Encoding: 87 87 12
Width: 1851
VWidth: 0
Flags: W
HStem: 0 21G<337.028 585.986 1265.03 1513.96> 1536 20G<32 275.963 800.028 1050.97 1576.02 1818>
LayerCount: 2
Fore
SplineSet
485 481 m 1
 806 1556 l 1
 1045 1556 l 1
 1366 481 l 1
 1580 1556 l 1
 1818 1556 l 1
 1510 0 l 1
 1271 0 l 1
 926 1156 l 1
 580 0 l 1
 341 0 l 1
 32 1556 l 1
 272 1556 l 1
 485 481 l 1
EndSplineSet
Validated: 1
EndChar
StartChar: X
Encoding: 88 88 13
Width: 1234
VWidth: 0
Flags: W
HStem: 0 21G<32 283.938 950.062 1202> 1536 20G<32 283.938 950.062 1202>
LayerCount: 2
Fore
SplineSet
32 1556 m 5
 272 1556 l 5
 617 978 l 5
 962 1556 l 5
 1202 1556 l 5
 736 778 l 5
 1202 0 l 5
 962 0 l 5
 617 578 l 5
 272 0 l 5
 32 0 l 5
 498 778 l 5
 32 1556 l 5
EndSplineSet
Validated: 1
EndChar
StartChar: Y
Encoding: 89 89 17
Width: 1234
VWidth: 0
Flags: W
HStem: 0 21G<498 736> 1536 20G<32 283.938 950.062 1202>
VStem: 498 238<0 778>
LayerCount: 2
Fore
SplineSet
736 778 m 1
 736 0 l 1
 498 0 l 1
 498 778 l 1
 32 1556 l 1
 272 1556 l 1
 617 978 l 1
 962 1556 l 1
 1202 1556 l 1
 736 778 l 1
EndSplineSet
Validated: 1
EndChar
StartChar: Z
Encoding: 90 90 16
Width: 1234
VWidth: 0
Flags: W
HStem: 0 239<420 1202> 1317 239<34 821>
LayerCount: 2
Fore
SplineSet
420 239 m 1
 1202 239 l 1
 1202 0 l 1
 34 0 l 1
 821 1317 l 1
 34 1317 l 1
 34 1556 l 1
 1234 1556 l 1
 420 239 l 1
EndSplineSet
Validated: 1
EndChar
StartChar: Lambda
Encoding: 923 923 7
Width: 2048
VWidth: 0
Flags: HW
LayerCount: 2
Fore
SplineSet
0 0 m 25
 625 1638 l 25
 875 1638 l 25
 1500 0 l 25
 1250 0 l 25
 750 1365 l 25
 250 0 l 25
 0 0 l 25
EndSplineSet
EndChar
StartChar: Xi
Encoding: 926 926 18
Width: 1234
VWidth: 0
Flags: W
HStem: 0 237<32 1202> 658 240<272 962> 1317 239<32 1202>
LayerCount: 2
Fore
SplineSet
1202 1556 m 25
 1202 1317 l 1
 32 1317 l 1
 32 1556 l 1
 1202 1556 l 25
272 658 m 1
 272 898 l 1
 962 898 l 1
 962 658 l 1
 272 658 l 1
32 0 m 1
 32 237 l 1
 1202 237 l 1
 1202 -2 l 1
 32 0 l 1
EndSplineSet
Validated: 1
EndChar
